<svg width="140" height="58" viewBox="0 0 140 58" fill="none" xmlns="http://www.w3.org/2000/svg">
<path d="M102.28 14.5764C102.16 14.5764 101.92 14.5664 101.92 14.5464V3.02644C101.92 3.02644 102.16 2.99644 102.28 2.99644C105.45 2.99644 108.08 5.60644 108.08 8.79644C108.08 11.9864 105.45 14.5764 102.28 14.5764ZM102.28 14.6964C105.53 14.6964 108.2 12.0364 108.2 8.79644C108.2 5.55644 105.53 2.87644 102.28 2.87644C99.0302 2.87644 96.3802 5.54644 96.3802 8.79644C96.3802 12.0464 99.0402 14.6964 102.28 14.6964ZM90.1702 14.3364H90.1402C90.1402 14.3364 89.8102 14.3364 89.8102 14.3264V3.26644C89.8102 3.26644 89.9002 3.25644 90.1102 3.25644H90.1402C93.0402 3.25644 95.3502 5.44644 95.3502 8.78644C95.3502 12.1264 93.0102 14.3464 90.1702 14.3464M90.1502 14.4564C93.1402 14.4564 95.4702 12.1464 95.4702 8.77644C95.4702 5.40644 93.1402 3.12644 90.1502 3.12644H85.0002C84.8902 3.12644 84.8202 3.18644 84.8202 3.30644V14.2664C84.8202 14.3764 84.8802 14.4464 85.0002 14.4464H90.1502V14.4564ZM72.6802 14.5764C72.5602 14.5764 72.3202 14.5664 72.3202 14.5464V3.02644C72.3202 3.02644 72.5602 2.99644 72.6802 2.99644C75.8502 2.99644 78.4802 5.60644 78.4802 8.79644C78.4802 11.9864 75.8502 14.5764 72.6802 14.5764ZM72.6802 14.6964C75.9302 14.6964 78.6002 12.0364 78.6002 8.79644C78.6002 5.55644 75.9302 2.87644 72.6802 2.87644C69.4302 2.87644 66.7802 5.54644 66.7802 8.79644C66.7802 12.0464 69.4402 14.6964 72.6802 14.6964ZM60.5802 14.4564H65.2002C65.3102 14.4564 65.3802 14.3764 65.3802 14.2764V3.31644C65.3802 3.17644 65.3202 3.13644 65.2002 3.13644H60.5802C60.4902 3.13644 60.4002 3.18644 60.4002 3.31644V14.2764C60.4002 14.3864 60.4602 14.4564 60.5802 14.4564ZM53.6802 12.0464V3.26644C53.6802 3.26644 53.7602 3.25644 53.8802 3.25644H53.9402C56.7902 3.25644 58.7402 4.96644 58.7402 7.43644C58.7402 10.2464 56.6702 12.0464 53.8002 12.0464H53.6802ZM48.8802 14.4564H53.5002C53.6202 14.4564 53.6802 14.3764 53.6802 14.2764V12.1664H53.8002C55.5102 12.1664 55.8402 14.6164 57.7402 14.6164C58.0602 14.6164 58.3102 14.5964 58.6902 14.4764C58.7802 14.4464 58.8102 14.3564 58.7702 14.3064L58.7502 14.2864C58.7502 14.2864 58.6402 14.2564 58.6102 14.2664C58.2902 14.4464 58.0402 14.4764 57.7302 14.4764C56.1002 14.4764 55.6802 12.5164 54.3302 12.1164C57.1702 11.9064 58.8402 9.92644 58.8402 7.41644C58.8402 4.90644 56.8502 3.11644 53.9302 3.11644H48.8602C48.7502 3.11644 48.6802 3.19644 48.6802 3.29644V14.2564C48.6802 14.3764 48.7602 14.4364 48.8602 14.4364M37.7202 12.0464L39.5602 8.40644L41.3302 12.0464H37.7202ZM42.2502 3.05644C42.1902 3.05644 42.1302 3.10644 42.1002 3.16644L37.0902 13.0164C36.6202 13.9364 36.4702 14.1364 36.3802 14.2964C36.3302 14.3764 36.4002 14.4664 36.4602 14.4664H36.4802C36.4802 14.4664 36.5602 14.4464 36.5902 14.3864C36.6802 14.2064 36.7702 13.9364 37.2102 13.0764L37.6802 12.1664H41.4102L41.5802 12.5164C42.2302 13.8464 42.3202 14.0464 42.4302 14.2664C42.4802 14.3564 42.5702 14.4664 42.7202 14.4664H47.9702C48.0602 14.4664 48.1202 14.3764 48.0602 14.2664C47.9702 14.0964 47.8302 13.8264 47.1502 12.4964L42.4102 3.16644C42.3802 3.10644 42.3302 3.05644 42.2702 3.05644M43.4802 0.44644C43.5402 0.41644 43.5402 0.35644 43.5302 0.32644V0.29644C43.5302 0.29644 43.4702 0.21644 43.3802 0.26644C43.2902 0.31644 43.1502 0.41644 42.8202 0.58644L41.6902 1.14644C41.3102 1.32644 41.1002 1.37644 40.9802 1.43644C40.9202 1.46644 40.9202 1.52644 40.9302 1.55644L40.9502 1.58644C40.9502 1.58644 41.0102 1.66644 41.0902 1.63644C41.2302 1.57644 41.3902 1.43644 41.7502 1.25644L42.8502 0.71644C43.2102 0.53644 43.3902 0.50644 43.4802 0.45644M31.1902 14.6964C34.6902 14.6964 36.1402 12.6564 36.1402 10.2164V4.71644C36.1402 3.68644 36.1902 3.38644 36.1902 3.23644C36.1902 3.15644 36.1302 3.12644 36.1002 3.12644H36.0802C36.0802 3.12644 35.9702 3.15644 35.9702 3.23644C35.9702 3.38644 36.0202 3.68644 36.0202 4.71644V10.2164C36.0202 12.6064 34.5902 14.5764 31.2202 14.5764C31.1902 14.5764 31.1602 14.5764 31.1602 14.5664V3.31644C31.1602 3.22644 31.1302 3.13644 30.9902 3.13644H26.3202C26.2102 3.13644 26.1702 3.21644 26.1702 3.31644V9.85644C26.1702 12.5464 27.8202 14.7064 31.1802 14.7064M23.9702 14.4564C24.1402 14.5464 24.2602 14.4864 24.2602 14.3464V5.02644C24.2602 3.53644 24.3102 3.33644 24.3102 3.24644C24.3102 3.16644 24.2502 3.13644 24.2202 3.13644H24.1902C24.1902 3.13644 24.1002 3.16644 24.1002 3.24644C24.1002 3.33644 24.1502 3.53644 24.1502 5.02644V8.58644L15.1802 3.13644C15.0102 3.02644 14.8902 3.10644 14.8902 3.24644V12.5764C14.8902 14.0364 14.8402 14.2564 14.8402 14.3564C14.8402 14.4364 14.9002 14.4664 14.9302 14.4664H14.9602C14.9602 14.4664 15.0502 14.4364 15.0502 14.3564C15.0502 14.2464 15.0002 14.0364 15.0002 12.5764V9.02644L23.9502 14.4664L23.9702 14.4564ZM3.87017 12.0464L5.71017 8.40644L7.48017 12.0464H3.87017ZM8.40017 3.05644C8.34017 3.05644 8.28017 3.10644 8.25017 3.16644L3.24017 13.0064C2.77017 13.9264 2.62017 14.1264 2.53017 14.2864C2.48017 14.3664 2.54017 14.4564 2.61017 14.4564H2.63017C2.63017 14.4564 2.71017 14.4364 2.74017 14.3764C2.83017 14.1964 2.92017 13.9264 3.36017 13.0664L3.83017 12.1564H7.56017L7.73017 12.5064C8.38017 13.8364 8.47017 14.0364 8.58017 14.2564C8.63017 14.3464 8.72017 14.4564 8.87017 14.4564H14.1202C14.2102 14.4564 14.2702 14.3664 14.2102 14.2564C14.1202 14.0864 13.9802 13.8164 13.3002 12.4864L8.54017 3.16644C8.51017 3.10644 8.46017 3.05644 8.40017 3.05644Z" fill="#B34353"/>
<path d="M90.1702 14.3364H90.1402C90.1402 14.3364 89.8102 14.3364 89.8102 14.3264V3.26644C89.8102 3.26644 89.9002 3.25644 90.1102 3.25644H90.1402C93.0402 3.25644 95.3502 5.44644 95.3502 8.78644C95.3502 12.1264 93.0102 14.3464 90.1702 14.3464M48.8802 14.4564H53.5002C53.6202 14.4564 53.6802 14.3764 53.6802 14.2764V12.1664H53.8002C55.5102 12.1664 55.8402 14.6164 57.7402 14.6164C58.0602 14.6164 58.3102 14.5964 58.6902 14.4764C58.7802 14.4464 58.8102 14.3564 58.7702 14.3064L58.7502 14.2864C58.7502 14.2864 58.6402 14.2564 58.6102 14.2664C58.2902 14.4464 58.0402 14.4764 57.7302 14.4764C56.1002 14.4764 55.6802 12.5164 54.3302 12.1164C57.1702 11.9064 58.8402 9.92644 58.8402 7.41644C58.8402 4.90644 56.8502 3.11644 53.9302 3.11644H48.8602C48.7502 3.11644 48.6802 3.19644 48.6802 3.29644V14.2564C48.6802 14.3764 48.7602 14.4364 48.8602 14.4364M42.2502 3.05644C42.1902 3.05644 42.1302 3.10644 42.1002 3.16644L37.0902 13.0164C36.6202 13.9364 36.4702 14.1364 36.3802 14.2964C36.3302 14.3764 36.4002 14.4664 36.4602 14.4664H36.4802C36.4802 14.4664 36.5602 14.4464 36.5902 14.3864C36.6802 14.2064 36.7702 13.9364 37.2102 13.0764L37.6802 12.1664H41.4102L41.5802 12.5164C42.2302 13.8464 42.3202 14.0464 42.4302 14.2664C42.4802 14.3564 42.5702 14.4664 42.7202 14.4664H47.9702C48.0602 14.4664 48.1202 14.3764 48.0602 14.2664C47.9702 14.0964 47.8302 13.8264 47.1502 12.4964L42.4102 3.16644C42.3802 3.10644 42.3302 3.05644 42.2702 3.05644M43.4802 0.44644C43.5402 0.41644 43.5402 0.35644 43.5302 0.32644V0.29644C43.5302 0.29644 43.4702 0.21644 43.3802 0.26644C43.2902 0.31644 43.1502 0.41644 42.8202 0.58644L41.6902 1.14644C41.3102 1.32644 41.1002 1.37644 40.9802 1.43644C40.9202 1.46644 40.9202 1.52644 40.9302 1.55644L40.9502 1.58644C40.9502 1.58644 41.0102 1.66644 41.0902 1.63644C41.2302 1.57644 41.3902 1.43644 41.7502 1.25644L42.8502 0.71644C43.2102 0.53644 43.3902 0.50644 43.4802 0.45644M31.1902 14.6964C34.6902 14.6964 36.1402 12.6564 36.1402 10.2164V4.71644C36.1402 3.68644 36.1902 3.38644 36.1902 3.23644C36.1902 3.15644 36.1302 3.12644 36.1002 3.12644H36.0802C36.0802 3.12644 35.9702 3.15644 35.9702 3.23644C35.9702 3.38644 36.0202 3.68644 36.0202 4.71644V10.2164C36.0202 12.6064 34.5902 14.5764 31.2202 14.5764C31.1902 14.5764 31.1602 14.5764 31.1602 14.5664V3.31644C31.1602 3.22644 31.1302 3.13644 30.9902 3.13644H26.3202C26.2102 3.13644 26.1702 3.21644 26.1702 3.31644V9.85644C26.1702 12.5464 27.8202 14.7064 31.1802 14.7064M102.28 14.5764C102.16 14.5764 101.92 14.5664 101.92 14.5464V3.02644C101.92 3.02644 102.16 2.99644 102.28 2.99644C105.45 2.99644 108.08 5.60644 108.08 8.79644C108.08 11.9864 105.45 14.5764 102.28 14.5764ZM102.28 14.6964C105.53 14.6964 108.2 12.0364 108.2 8.79644C108.2 5.55644 105.53 2.87644 102.28 2.87644C99.0302 2.87644 96.3802 5.54644 96.3802 8.79644C96.3802 12.0464 99.0402 14.6964 102.28 14.6964ZM90.1502 14.4564C93.1402 14.4564 95.4702 12.1464 95.4702 8.77644C95.4702 5.40644 93.1402 3.12644 90.1502 3.12644H85.0002C84.8902 3.12644 84.8202 3.18644 84.8202 3.30644V14.2664C84.8202 14.3764 84.8802 14.4464 85.0002 14.4464H90.1502V14.4564ZM72.6802 14.5764C72.5602 14.5764 72.3202 14.5664 72.3202 14.5464V3.02644C72.3202 3.02644 72.5602 2.99644 72.6802 2.99644C75.8502 2.99644 78.4802 5.60644 78.4802 8.79644C78.4802 11.9864 75.8502 14.5764 72.6802 14.5764ZM72.6802 14.6964C75.9302 14.6964 78.6002 12.0364 78.6002 8.79644C78.6002 5.55644 75.9302 2.87644 72.6802 2.87644C69.4302 2.87644 66.7802 5.54644 66.7802 8.79644C66.7802 12.0464 69.4402 14.6964 72.6802 14.6964ZM60.5802 14.4564H65.2002C65.3102 14.4564 65.3802 14.3764 65.3802 14.2764V3.31644C65.3802 3.17644 65.3202 3.13644 65.2002 3.13644H60.5802C60.4902 3.13644 60.4002 3.18644 60.4002 3.31644V14.2764C60.4002 14.3864 60.4602 14.4564 60.5802 14.4564ZM53.6802 12.0464V3.26644C53.6802 3.26644 53.7602 3.25644 53.8802 3.25644H53.9402C56.7902 3.25644 58.7402 4.96644 58.7402 7.43644C58.7402 10.2464 56.6702 12.0464 53.8002 12.0464H53.6802ZM37.7202 12.0464L39.5602 8.40644L41.3302 12.0464H37.7202ZM23.9702 14.4564C24.1402 14.5464 24.2602 14.4864 24.2602 14.3464V5.02644C24.2602 3.53644 24.3102 3.33644 24.3102 3.24644C24.3102 3.16644 24.2502 3.13644 24.2202 3.13644H24.1902C24.1902 3.13644 24.1002 3.16644 24.1002 3.24644C24.1002 3.33644 24.1502 3.53644 24.1502 5.02644V8.58644L15.1802 3.13644C15.0102 3.02644 14.8902 3.10644 14.8902 3.24644V12.5764C14.8902 14.0364 14.8402 14.2564 14.8402 14.3564C14.8402 14.4364 14.9002 14.4664 14.9302 14.4664H14.9602C14.9602 14.4664 15.0502 14.4364 15.0502 14.3564C15.0502 14.2464 15.0002 14.0364 15.0002 12.5764V9.02644L23.9502 14.4664L23.9702 14.4564ZM3.87017 12.0464L5.71017 8.40644L7.48017 12.0464H3.87017ZM8.40017 3.05644C8.34017 3.05644 8.28017 3.10644 8.25017 3.16644L3.24017 13.0064C2.77017 13.9264 2.62017 14.1264 2.53017 14.2864C2.48017 14.3664 2.54017 14.4564 2.61017 14.4564H2.63017C2.63017 14.4564 2.71017 14.4364 2.74017 14.3764C2.83017 14.1964 2.92017 13.9264 3.36017 13.0664L3.83017 12.1564H7.56017L7.73017 12.5064C8.38017 13.8364 8.47017 14.0364 8.58017 14.2564C8.63017 14.3464 8.72017 14.4564 8.87017 14.4564H14.1202C14.2102 14.4564 14.2702 14.3664 14.2102 14.2564C14.1202 14.0864 13.9802 13.8164 13.3002 12.4864L8.54017 3.16644C8.51017 3.10644 8.46017 3.05644 8.40017 3.05644Z" stroke="#B34353" stroke-width="0.5" stroke-miterlimit="10"/>
<path d="M113.69 39.3156L118.25 30.3156L122.62 39.3156H113.7H113.69ZM124.89 17.0956C124.74 17.0956 124.59 17.2056 124.52 17.3556L112.12 41.7056C110.96 43.9856 110.59 44.4656 110.36 44.8756C110.25 45.0656 110.4 45.2856 110.55 45.2856H110.59C110.7 45.2856 110.78 45.2456 110.85 45.0956C111.07 44.6456 111.3 43.9756 112.38 41.8456L113.54 39.6056H122.76L123.17 40.4656C124.78 43.7556 125 44.2356 125.26 44.7956C125.37 45.0156 125.6 45.2856 125.97 45.2856H138.96C139.18 45.2856 139.33 45.0656 139.18 44.7956C138.96 44.3856 138.62 43.7156 136.94 40.4256L125.22 17.3456C125.15 17.1956 125.03 17.0856 124.88 17.0856M127.91 10.6356C128.06 10.5656 128.06 10.4156 128.02 10.3356L127.98 10.2656C127.94 10.1956 127.87 10.0756 127.64 10.1956C127.42 10.3056 127.08 10.5656 126.26 10.9756L123.46 12.3556C122.53 12.8056 122 12.9156 121.7 13.0656C121.55 13.1356 121.55 13.2856 121.59 13.3656L121.63 13.4356C121.67 13.5056 121.78 13.6256 121.97 13.5456C122.31 13.3956 122.72 13.0556 123.61 12.6156L126.34 11.2756C127.24 10.8256 127.68 10.7556 127.91 10.6456M98.19 39.3156V17.6256C98.19 17.6256 98.38 17.5856 98.68 17.5856H98.83C105.89 17.5856 110.7 21.8056 110.7 27.9256C110.7 34.8656 105.58 39.3156 98.49 39.3156H98.19ZM86.32 45.2856H97.75C98.05 45.2856 98.2 45.0956 98.2 44.8356V39.6056H98.5C102.72 39.6056 103.54 45.6556 108.25 45.6556C109.03 45.6556 109.67 45.6156 110.6 45.3156C110.82 45.2456 110.9 45.0156 110.79 44.9056L110.75 44.8656C110.64 44.7556 110.49 44.7956 110.41 44.8256C109.63 45.2756 108.99 45.3456 108.24 45.3456C104.21 45.3456 103.16 40.4956 99.84 39.5256C106.86 39.0056 111 34.1156 111 27.9156C111 21.7156 106.07 17.2756 98.86 17.2756H86.31C86.05 17.2756 85.86 17.4656 85.86 17.7256V44.8356C85.86 45.1356 86.05 45.2856 86.31 45.2856M58.72 39.3156L63.28 30.3156L67.65 39.3156H58.73H58.72ZM69.93 17.0956C69.78 17.0956 69.63 17.2056 69.56 17.3556L57.16 41.7056C56 43.9856 55.63 44.4656 55.41 44.8756C55.3 45.0656 55.45 45.2856 55.6 45.2856H55.64C55.75 45.2856 55.83 45.2456 55.9 45.0956C56.12 44.6456 56.35 43.9756 57.43 41.8456L58.59 39.6056H67.81L68.22 40.4656C69.83 43.7556 70.05 44.2356 70.31 44.7956C70.42 45.0156 70.65 45.2856 71.02 45.2856H84.01C84.23 45.2856 84.38 45.0656 84.23 44.7956C84.01 44.3856 83.67 43.7156 81.99 40.4256L70.27 17.3456C70.2 17.1956 70.08 17.0856 69.93 17.0856M31.39 45.2856H50.32C53.61 45.2856 54.05 45.3556 54.35 45.3556C54.54 45.3556 54.61 45.2056 54.61 45.1356V45.0656C54.61 44.9956 54.54 44.8456 54.35 44.8456C54.05 44.8456 53.6 44.9956 50.32 44.9956H43.52C43.37 44.9956 43.26 44.9956 43.26 44.9556V28.3056H48.45C51.18 28.3056 51.74 28.4156 52.11 28.4156C52.3 28.4156 52.37 28.2656 52.37 28.1956V28.1256C52.37 28.0556 52.3 27.9056 52.11 27.9056C51.74 27.9056 51.18 28.0156 48.45 28.0156H43.26V17.6356C43.26 17.6356 43.33 17.5956 43.48 17.5956H48.45C51.18 17.5956 51.62 17.7456 52.11 17.7456C52.3 17.7456 52.37 17.5956 52.37 17.5256V17.4556C52.37 17.3856 52.3 17.2356 52.11 17.2356C51.62 17.2356 51.18 17.3056 48.45 17.3056H31.39C31.17 17.3056 30.94 17.4956 30.94 17.7556V44.8656C30.94 45.1656 31.13 45.3156 31.39 45.3156M14.85 45.8856C21.35 45.8856 26.43 41.7756 28.59 36.8856C28.66 36.6956 28.63 36.6256 28.55 36.5456L28.51 36.5056C28.44 36.4356 28.17 36.4356 28.1 36.6956C26.46 41.4756 21.15 45.5856 14.84 45.5856C14.54 45.5856 13.94 45.5456 13.94 45.5156V17.0256C13.94 17.0256 14.54 16.9556 14.84 16.9556C21.08 16.9556 26.38 21.1756 27.87 25.8756C27.94 26.1356 28.21 26.1356 28.28 26.0656L28.32 26.0256C28.39 25.9556 28.43 25.9156 28.36 25.6856C26.38 20.8656 21.23 16.6456 14.84 16.6456C6.86 16.6456 0.25 23.2156 0.25 31.2456C0.25 39.2756 6.86 45.8856 14.85 45.8856Z" fill="#B34353"/>
<path d="M124.89 17.0956C124.74 17.0956 124.59 17.2056 124.52 17.3556L112.12 41.7056C110.96 43.9856 110.59 44.4656 110.36 44.8756C110.25 45.0656 110.4 45.2856 110.55 45.2856H110.59C110.7 45.2856 110.78 45.2456 110.85 45.0956C111.07 44.6456 111.3 43.9756 112.38 41.8456L113.54 39.6056H122.76L123.17 40.4656C124.78 43.7556 125 44.2356 125.26 44.7956C125.37 45.0156 125.6 45.2856 125.97 45.2856H138.96C139.18 45.2856 139.33 45.0656 139.18 44.7956C138.96 44.3856 138.62 43.7156 136.94 40.4256L125.22 17.3456C125.15 17.1956 125.03 17.0856 124.88 17.0856M127.91 10.6356C128.06 10.5656 128.06 10.4156 128.02 10.3356L127.98 10.2656C127.94 10.1956 127.87 10.0756 127.64 10.1956C127.42 10.3056 127.08 10.5656 126.26 10.9756L123.46 12.3556C122.53 12.8056 122 12.9156 121.7 13.0656C121.55 13.1356 121.55 13.2856 121.59 13.3656L121.63 13.4356C121.67 13.5056 121.78 13.6256 121.97 13.5456C122.31 13.3956 122.72 13.0556 123.61 12.6156L126.34 11.2756C127.24 10.8256 127.68 10.7556 127.91 10.6456M86.32 45.2856H97.75C98.05 45.2856 98.2 45.0956 98.2 44.8356V39.6056H98.5C102.72 39.6056 103.54 45.6556 108.25 45.6556C109.03 45.6556 109.67 45.6156 110.6 45.3156C110.82 45.2456 110.9 45.0156 110.79 44.9056L110.75 44.8656C110.64 44.7556 110.49 44.7956 110.41 44.8256C109.63 45.2756 108.99 45.3456 108.24 45.3456C104.21 45.3456 103.16 40.4956 99.84 39.5256C106.86 39.0056 111 34.1156 111 27.9156C111 21.7156 106.07 17.2756 98.86 17.2756H86.31C86.05 17.2756 85.86 17.4656 85.86 17.7256V44.8356C85.86 45.1356 86.05 45.2856 86.31 45.2856M69.93 17.0956C69.78 17.0956 69.63 17.2056 69.56 17.3556L57.16 41.7056C56 43.9856 55.63 44.4656 55.41 44.8756C55.3 45.0656 55.45 45.2856 55.6 45.2856H55.64C55.75 45.2856 55.83 45.2456 55.9 45.0956C56.12 44.6456 56.35 43.9756 57.43 41.8456L58.59 39.6056H67.81L68.22 40.4656C69.83 43.7556 70.05 44.2356 70.31 44.7956C70.42 45.0156 70.65 45.2856 71.02 45.2856H84.01C84.23 45.2856 84.38 45.0656 84.23 44.7956C84.01 44.3856 83.67 43.7156 81.99 40.4256L70.27 17.3456C70.2 17.1956 70.08 17.0856 69.93 17.0856M31.39 45.2856H50.32C53.61 45.2856 54.05 45.3556 54.35 45.3556C54.54 45.3556 54.61 45.2056 54.61 45.1356V45.0656C54.61 44.9956 54.54 44.8456 54.35 44.8456C54.05 44.8456 53.6 44.9956 50.32 44.9956H43.52C43.37 44.9956 43.26 44.9956 43.26 44.9556V28.3056H48.45C51.18 28.3056 51.74 28.4156 52.11 28.4156C52.3 28.4156 52.37 28.2656 52.37 28.1956V28.1256C52.37 28.0556 52.3 27.9056 52.11 27.9056C51.74 27.9056 51.18 28.0156 48.45 28.0156H43.26V17.6356C43.26 17.6356 43.33 17.5956 43.48 17.5956H48.45C51.18 17.5956 51.62 17.7456 52.11 17.7456C52.3 17.7456 52.37 17.5956 52.37 17.5256V17.4556C52.37 17.3856 52.3 17.2356 52.11 17.2356C51.62 17.2356 51.18 17.3056 48.45 17.3056H31.39C31.17 17.3056 30.94 17.4956 30.94 17.7556V44.8656C30.94 45.1656 31.13 45.3156 31.39 45.3156M113.69 39.3156L118.25 30.3156L122.62 39.3156H113.7H113.69ZM98.19 39.3156V17.6256C98.19 17.6256 98.38 17.5856 98.68 17.5856H98.83C105.89 17.5856 110.7 21.8056 110.7 27.9256C110.7 34.8656 105.58 39.3156 98.49 39.3156H98.19ZM58.72 39.3156L63.28 30.3156L67.65 39.3156H58.73H58.72ZM14.85 45.8856C21.35 45.8856 26.43 41.7756 28.59 36.8856C28.66 36.6956 28.63 36.6256 28.55 36.5456L28.51 36.5056C28.44 36.4356 28.17 36.4356 28.1 36.6956C26.46 41.4756 21.15 45.5856 14.84 45.5856C14.54 45.5856 13.94 45.5456 13.94 45.5156V17.0256C13.94 17.0256 14.54 16.9556 14.84 16.9556C21.08 16.9556 26.38 21.1756 27.87 25.8756C27.94 26.1356 28.21 26.1356 28.28 26.0656L28.32 26.0256C28.39 25.9556 28.43 25.9156 28.36 25.6856C26.38 20.8656 21.23 16.6456 14.84 16.6456C6.86 16.6456 0.25 23.2156 0.25 31.2456C0.25 39.2756 6.86 45.8856 14.85 45.8856Z" stroke="#B34353" stroke-width="0.5" stroke-miterlimit="10"/>
<path d="M71.7 53.2363H67.79V54.3263H71.7V53.2363Z" fill="#B34353" stroke="#B34353" stroke-width="0.5" stroke-miterlimit="10"/>
<path d="M106.34 49.4463C106.17 49.3063 105.99 49.1863 105.78 49.1063C105.58 49.0163 105.36 48.9563 105.13 48.9163C104.9 48.8763 104.67 48.8563 104.44 48.8563C103.8 48.8563 103.21 48.9763 102.69 49.2263C102.17 49.4763 101.73 49.7963 101.36 50.2063C100.99 50.6063 100.71 51.0663 100.51 51.5863C100.31 52.1063 100.21 52.6263 100.21 53.1663C100.21 53.7063 100.3 54.2063 100.47 54.7163C100.65 55.2263 100.93 55.6863 101.32 56.0863C101.48 56.2663 101.68 56.4263 101.89 56.5563C102.11 56.6863 102.33 56.8063 102.57 56.8963C102.81 56.9863 103.05 57.0563 103.31 57.1063C103.56 57.1563 103.82 57.1763 104.06 57.1763C104.58 57.1763 105.04 57.1063 105.44 56.9663C105.84 56.8263 106.19 56.6263 106.49 56.3763C106.79 56.1263 107.02 55.8263 107.21 55.4863C107.39 55.1463 107.53 54.7663 107.61 54.3663C107.63 54.2463 107.64 54.1163 107.64 53.9763C107.64 53.6363 107.58 53.3263 107.46 53.0463C107.34 52.7663 107.18 52.5163 106.98 52.3063C106.78 52.0963 106.54 51.9363 106.27 51.8163C106 51.6963 105.71 51.6463 105.41 51.6463C105.32 51.6463 105.2 51.6563 105.06 51.6763C104.91 51.6963 104.77 51.7363 104.63 51.7763C104.49 51.8263 104.37 51.8763 104.27 51.9463C104.17 52.0163 104.12 52.0963 104.12 52.1863C104.12 52.2963 104.18 52.3563 104.28 52.3563C104.33 52.3563 104.36 52.3363 104.39 52.3063C104.73 52.1163 105.09 52.0163 105.47 52.0163C105.72 52.0163 105.95 52.0663 106.17 52.1763C106.39 52.2863 106.57 52.4263 106.73 52.6063C106.89 52.7863 107.01 52.9963 107.11 53.2263C107.2 53.4663 107.25 53.7063 107.25 53.9463C107.25 54.3763 107.17 54.7763 107 55.1263C106.83 55.4863 106.6 55.7863 106.31 56.0463C106.02 56.2963 105.68 56.4963 105.29 56.6363C104.9 56.7763 104.5 56.8463 104.07 56.8463H103.92C103.92 56.8463 103.83 56.8463 103.79 56.8363V49.2263C103.89 49.2063 104 49.1963 104.11 49.1863C104.22 49.1763 104.33 49.1663 104.44 49.1663C104.73 49.1663 105.02 49.1963 105.29 49.2463C105.57 49.3063 105.8 49.4363 105.97 49.6463C106.02 49.7063 106.07 49.7763 106.12 49.8563C106.16 49.9363 106.21 50.0163 106.25 50.0863C106.29 50.1563 106.33 50.2163 106.38 50.2663C106.43 50.3163 106.47 50.3363 106.51 50.3363C106.56 50.3363 106.62 50.3063 106.7 50.2563C106.77 50.2063 106.81 50.1463 106.81 50.0863C106.81 50.0463 106.8 50.0063 106.78 49.9663C106.65 49.7463 106.5 49.5663 106.34 49.4263V49.4463ZM98.7102 56.4663C98.5602 56.4963 98.4002 56.5163 98.2102 56.5263C98.1102 56.5263 97.9702 56.5463 97.8102 56.5463C97.6702 56.5463 97.4902 56.5563 97.2702 56.5663C97.0502 56.5663 96.7802 56.5663 96.4702 56.5663H96.0702L98.4102 53.3263C98.5102 53.1863 98.6202 53.0263 98.7102 52.8563C98.8102 52.6863 98.9002 52.5063 98.9702 52.3263C99.0502 52.1363 99.1102 51.9463 99.1602 51.7563C99.2102 51.5663 99.2302 51.3763 99.2302 51.1863C99.2302 50.7463 99.1302 50.3663 98.9302 50.0563C98.7302 49.7463 98.4702 49.4963 98.1402 49.2963C97.8102 49.1063 97.4302 48.9563 97.0002 48.8663C96.5702 48.7763 96.1202 48.7363 95.6602 48.7363C95.2002 48.7363 94.7402 48.8063 94.3202 48.9363C93.9002 49.0663 93.5202 49.2563 93.2002 49.4863C92.8802 49.7163 92.6202 49.9963 92.4402 50.3163C92.2502 50.6363 92.1602 50.9763 92.1602 51.3363C92.1602 51.5763 92.2002 51.7963 92.2702 52.0063C92.3402 52.2163 92.4802 52.4263 92.6902 52.6663C92.7302 52.6963 92.7702 52.7163 92.8202 52.7163C92.8702 52.7163 92.9202 52.6963 92.9602 52.6563C93.0002 52.6163 93.0202 52.5663 93.0202 52.5063C93.0202 52.4663 93.0102 52.4263 92.9902 52.3863C92.8202 52.1963 92.7002 52.0163 92.6402 51.8563C92.5802 51.6963 92.5402 51.5163 92.5402 51.3263C92.5402 51.0063 92.6302 50.7063 92.8002 50.4263C92.9702 50.1463 93.2002 49.9163 93.5002 49.7163C93.7902 49.5163 94.1302 49.3663 94.5202 49.2463C94.9102 49.1363 95.3202 49.0763 95.7402 49.0763C96.0802 49.0763 96.3202 49.1163 96.4402 49.2063C96.5602 49.2963 96.6302 49.4163 96.6302 49.5763C96.6302 49.7063 96.6002 49.8363 96.5502 49.9663C96.4902 50.0963 96.4402 50.2263 96.3802 50.3363C96.1802 50.7263 95.9602 51.1163 95.7102 51.5163C95.4702 51.9163 95.2402 52.2763 95.0302 52.5963C94.7802 52.9763 94.5402 53.3463 94.2902 53.6963L91.9902 56.8763H97.8402C97.9402 56.8763 98.0602 56.8763 98.1902 56.8863C98.3202 56.8863 98.4402 56.8963 98.5502 56.9063C98.6602 56.9063 98.7602 56.9063 98.8402 56.9263C98.9202 56.9263 98.9702 56.9363 98.9902 56.9363C99.0902 56.9363 99.1702 56.8963 99.2002 56.8063C99.2402 56.7163 99.2602 56.6463 99.2602 56.5863C99.2602 56.5363 99.2602 56.4863 99.2302 56.4563C99.2102 56.4163 99.1702 56.3963 99.1102 56.3963C99.0802 56.3963 99.0502 56.3963 99.0302 56.4063C98.9802 56.4163 98.8902 56.4463 98.7402 56.4663H98.7102ZM88.2102 49.2163C88.4402 49.2663 88.6602 49.3463 88.8702 49.4463C89.1502 49.5863 89.4102 49.7763 89.6402 50.0063C89.8702 50.2363 90.0902 50.4963 90.2602 50.8063C90.4302 51.1063 90.5702 51.4463 90.6602 51.8163C90.7602 52.1863 90.8102 52.5863 90.8102 53.0263C90.8102 53.4663 90.7602 53.8563 90.6602 54.2263C90.5602 54.5963 90.4202 54.9363 90.2402 55.2363C90.0602 55.5363 89.8502 55.8063 89.6002 56.0363C89.3502 56.2663 89.0802 56.4463 88.7902 56.5763C88.5802 56.6763 88.3602 56.7463 88.1402 56.7863C87.9202 56.8363 87.6802 56.8563 87.4402 56.8563H87.2602V49.1663C87.2602 49.1663 87.3402 49.1663 87.3802 49.1663C87.4202 49.1663 87.4602 49.1663 87.5102 49.1663C87.7502 49.1663 87.9802 49.1863 88.2102 49.2363V49.2163ZM83.6502 53.0163C83.6702 53.5263 83.7602 54.0263 83.9502 54.5363C84.1302 55.0363 84.3902 55.4863 84.7102 55.8863C85.0402 56.2863 85.4302 56.6063 85.8802 56.8563C86.3402 57.1063 86.8502 57.2263 87.4202 57.2263C88.0802 57.2263 88.6702 57.0763 89.1902 56.7763C89.4902 56.6063 89.7602 56.3863 90.0002 56.1363C90.2402 55.8863 90.4502 55.5963 90.6302 55.2763C90.8102 54.9563 90.9402 54.6063 91.0402 54.2263C91.1402 53.8463 91.1902 53.4463 91.1902 53.0263C91.1902 52.3663 91.0902 51.7763 90.8902 51.2563C90.6902 50.7363 90.4202 50.2963 90.0802 49.9263C89.7402 49.5563 89.3502 49.2763 88.9102 49.0863C88.4602 48.8963 88.0002 48.7963 87.5202 48.7963C87.1302 48.7963 86.7402 48.8563 86.3602 48.9863C85.9702 49.1063 85.6002 49.3063 85.2402 49.5863C84.9802 49.7863 84.7502 50.0163 84.5602 50.2663C84.3702 50.5163 84.2002 50.7963 84.0702 51.0863C83.9402 51.3763 83.8402 51.6863 83.7702 52.0063C83.7002 52.3263 83.6602 52.6463 83.6502 52.9663V53.0363V53.0163ZM82.1302 56.4663C81.9802 56.4963 81.8202 56.5163 81.6302 56.5263C81.5202 56.5263 81.3902 56.5463 81.2302 56.5463C81.0902 56.5463 80.9102 56.5563 80.6902 56.5663C80.4702 56.5663 80.2002 56.5663 79.8902 56.5663H79.4902L81.8302 53.3263C81.9302 53.1863 82.0402 53.0263 82.1302 52.8563C82.2302 52.6863 82.3202 52.5063 82.3902 52.3263C82.4702 52.1363 82.5302 51.9463 82.5802 51.7563C82.6302 51.5663 82.6502 51.3763 82.6502 51.1863C82.6502 50.7463 82.5502 50.3663 82.3502 50.0563C82.1502 49.7463 81.8902 49.4963 81.5602 49.2963C81.2302 49.1063 80.8502 48.9563 80.4202 48.8663C79.9902 48.7763 79.5402 48.7363 79.0802 48.7363C78.6202 48.7363 78.1602 48.8063 77.7402 48.9363C77.3202 49.0663 76.9402 49.2563 76.6202 49.4863C76.3002 49.7163 76.0402 49.9963 75.8602 50.3163C75.6702 50.6363 75.5802 50.9763 75.5802 51.3363C75.5802 51.5763 75.6202 51.7963 75.6902 52.0063C75.7602 52.2163 75.9002 52.4263 76.1102 52.6663C76.1502 52.6963 76.1902 52.7163 76.2402 52.7163C76.2902 52.7163 76.3402 52.6963 76.3802 52.6563C76.4202 52.6163 76.4402 52.5663 76.4402 52.5063C76.4402 52.4663 76.4302 52.4263 76.4102 52.3863C76.2402 52.1963 76.1202 52.0163 76.0602 51.8563C76.0002 51.6963 75.9602 51.5163 75.9602 51.3263C75.9602 51.0063 76.0502 50.7063 76.2202 50.4263C76.3902 50.1463 76.6202 49.9163 76.9202 49.7163C77.2102 49.5163 77.5502 49.3663 77.9402 49.2463C78.3302 49.1363 78.7402 49.0763 79.1602 49.0763C79.5002 49.0763 79.7402 49.1163 79.8602 49.2063C79.9802 49.2963 80.0502 49.4163 80.0502 49.5763C80.0502 49.7063 80.0202 49.8363 79.9702 49.9663C79.9102 50.0963 79.8602 50.2263 79.8002 50.3363C79.6002 50.7263 79.3802 51.1163 79.1302 51.5163C78.8902 51.9163 78.6602 52.2763 78.4502 52.5963C78.2002 52.9763 77.9602 53.3463 77.7102 53.6963L75.4102 56.8763H81.2602C81.3602 56.8763 81.4802 56.8763 81.6102 56.8863C81.7402 56.8863 81.8602 56.8963 81.9702 56.9063C82.0802 56.9063 82.1802 56.9063 82.2602 56.9263C82.3402 56.9263 82.3902 56.9363 82.4102 56.9363C82.5102 56.9363 82.5902 56.8963 82.6202 56.8063C82.6602 56.7163 82.6802 56.6463 82.6802 56.5863C82.6802 56.5363 82.6802 56.4863 82.6502 56.4563C82.6302 56.4163 82.5902 56.3963 82.5302 56.3963C82.5002 56.3963 82.4702 56.3963 82.4502 56.4063C82.4102 56.4163 82.3102 56.4463 82.1602 56.4663H82.1302ZM61.9002 49.1063C61.7402 49.1263 61.5702 49.1363 61.3802 49.1363H58.1802C58.1802 49.1363 58.1302 49.1263 58.1002 49.1263C58.0702 49.1263 58.0502 49.1463 58.0402 49.1763L58.0202 49.2363C57.8702 49.5963 57.7402 49.9463 57.6302 50.2963C57.5202 50.6463 57.4002 50.9963 57.2502 51.3563C57.2302 51.4163 57.2302 51.4563 57.2302 51.4663C57.2302 51.5763 57.3002 51.6263 57.4502 51.6263C57.5102 51.6263 57.5602 51.5863 57.6102 51.5163C57.6602 51.4463 57.7502 51.3863 57.8702 51.3263C57.9902 51.2663 58.1302 51.2263 58.2902 51.1763C58.4502 51.1363 58.6102 51.1063 58.7902 51.0763C58.9702 51.0463 59.1402 51.0363 59.3102 51.0363C59.3602 51.0363 59.4202 51.0363 59.4702 51.0463C59.5302 51.0463 59.5802 51.0763 59.6302 51.1263C59.6802 51.1663 59.7202 51.2463 59.7502 51.3363C59.7802 51.4363 59.8002 51.5663 59.8002 51.7363V56.8463H59.6702C59.2702 56.8463 58.8902 56.7963 58.5202 56.6863C58.1502 56.5863 57.8202 56.4263 57.5402 56.2163C57.2602 56.0063 57.0302 55.7563 56.8502 55.4463C56.6702 55.1363 56.5902 54.7763 56.5902 54.3663C56.5902 54.1763 56.6302 53.9763 56.7102 53.7763C56.7902 53.5763 56.9302 53.3963 57.1302 53.2163C57.2002 53.1463 57.2402 53.0763 57.2402 53.0063C57.2402 52.9363 57.2102 52.8763 57.1602 52.8363C57.1102 52.7863 57.0402 52.7663 56.9702 52.7663C56.8402 52.7663 56.7302 52.8263 56.6402 52.9563C56.5502 53.0763 56.4702 53.2263 56.4002 53.3963C56.3402 53.5663 56.2902 53.7363 56.2602 53.9163C56.2302 54.0963 56.2102 54.2263 56.2102 54.3263C56.2102 54.7963 56.3002 55.2163 56.4902 55.5663C56.6702 55.9263 56.9202 56.2163 57.2302 56.4663C57.5402 56.7063 57.9002 56.8963 58.3102 57.0163C58.7202 57.1363 59.1602 57.2063 59.6202 57.2063C60.1402 57.2063 60.6302 57.1263 61.0902 56.9563C61.5502 56.7963 61.9502 56.5663 62.2902 56.2663C62.6302 55.9663 62.9002 55.6163 63.0902 55.2063C63.2802 54.7963 63.3802 54.3463 63.3802 53.8463C63.3802 53.3463 63.2802 52.9363 63.0802 52.5463C62.8802 52.1563 62.6102 51.8263 62.2502 51.5463C61.9002 51.2663 61.4802 51.0563 61.0102 50.9163C60.5302 50.7663 60.0202 50.6963 59.4702 50.6963C59.1902 50.6963 58.9002 50.7163 58.6202 50.7563C58.3402 50.7963 58.0802 50.8663 57.8302 50.9763C57.9102 50.7263 57.9902 50.4863 58.0702 50.2363C58.1502 49.9963 58.2402 49.7463 58.3502 49.4863H60.8002C60.9302 49.4863 61.0802 49.4863 61.2402 49.4963C61.4002 49.4963 61.5402 49.5063 61.6802 49.5163C61.8202 49.5163 61.9302 49.5263 62.0302 49.5363C62.1202 49.5363 62.1802 49.5463 62.1902 49.5463C62.2902 49.5463 62.3602 49.5063 62.4002 49.4263C62.4302 49.3463 62.4502 49.2663 62.4502 49.1863C62.4502 49.0863 62.4002 49.0363 62.3002 49.0363C62.2702 49.0363 62.2402 49.0363 62.2202 49.0463C62.1702 49.0663 62.0702 49.0763 61.9102 49.0963L61.9002 49.1063ZM54.7502 56.4663C54.6002 56.4963 54.4402 56.5163 54.2502 56.5263C54.1402 56.5263 54.0102 56.5463 53.8502 56.5463C53.7102 56.5463 53.5302 56.5563 53.3102 56.5663C53.0902 56.5663 52.8202 56.5663 52.5102 56.5663H52.1102L54.4502 53.3263C54.5502 53.1863 54.6602 53.0263 54.7502 52.8563C54.8502 52.6863 54.9402 52.5063 55.0102 52.3263C55.0902 52.1363 55.1502 51.9463 55.2002 51.7563C55.2402 51.5663 55.2702 51.3763 55.2702 51.1863C55.2702 50.7463 55.1702 50.3663 54.9702 50.0563C54.7702 49.7463 54.5102 49.4963 54.1802 49.2963C53.8502 49.1063 53.4702 48.9563 53.0402 48.8663C52.6102 48.7763 52.1602 48.7363 51.7002 48.7363C51.2402 48.7363 50.7802 48.8063 50.3602 48.9363C49.9402 49.0663 49.5602 49.2563 49.2402 49.4863C48.9202 49.7163 48.6602 49.9963 48.4802 50.3163C48.2902 50.6363 48.2002 50.9763 48.2002 51.3363C48.2002 51.5763 48.2402 51.7963 48.3102 52.0063C48.3802 52.2163 48.5202 52.4263 48.7302 52.6663C48.7702 52.6963 48.8102 52.7163 48.8602 52.7163C48.9102 52.7163 48.9602 52.6963 49.0002 52.6563C49.0402 52.6163 49.0602 52.5663 49.0602 52.5063C49.0602 52.4663 49.0502 52.4263 49.0302 52.3863C48.8602 52.1963 48.7402 52.0163 48.6802 51.8563C48.6202 51.6963 48.5802 51.5163 48.5802 51.3263C48.5802 51.0063 48.6702 50.7063 48.8402 50.4263C49.0102 50.1463 49.2402 49.9163 49.5402 49.7163C49.8302 49.5163 50.1702 49.3663 50.5602 49.2463C50.9502 49.1363 51.3602 49.0763 51.7802 49.0763C52.1202 49.0763 52.3602 49.1163 52.4802 49.2063C52.6002 49.2963 52.6702 49.4163 52.6702 49.5763C52.6702 49.7063 52.6402 49.8363 52.5902 49.9663C52.5302 50.0963 52.4802 50.2263 52.4202 50.3363C52.2202 50.7263 52.0002 51.1163 51.7502 51.5163C51.5102 51.9163 51.2802 52.2763 51.0702 52.5963C50.8202 52.9763 50.5802 53.3463 50.3302 53.6963L48.0302 56.8763H53.8802C53.9802 56.8763 54.1002 56.8763 54.2302 56.8863C54.3602 56.8863 54.4802 56.8963 54.5902 56.9063C54.7002 56.9063 54.8002 56.9063 54.8802 56.9263C54.9602 56.9263 55.0102 56.9363 55.0302 56.9363C55.1302 56.9363 55.2102 56.8963 55.2402 56.8063C55.2802 56.7163 55.3002 56.6463 55.3002 56.5863C55.3002 56.5363 55.3002 56.4863 55.2702 56.4563C55.2502 56.4163 55.2102 56.3963 55.1502 56.3963C55.1202 56.3963 55.0902 56.3963 55.0702 56.4063C55.0202 56.4163 54.9302 56.4463 54.7802 56.4663H54.7502ZM44.2502 49.2163C44.4802 49.2663 44.7002 49.3463 44.9102 49.4463C45.1902 49.5863 45.4402 49.7763 45.6802 50.0063C45.9202 50.2363 46.1302 50.4963 46.3002 50.8063C46.4702 51.1063 46.6102 51.4463 46.7002 51.8163C46.8002 52.1863 46.8502 52.5863 46.8502 53.0263C46.8502 53.4663 46.8002 53.8563 46.7002 54.2263C46.6002 54.5963 46.4602 54.9363 46.2802 55.2363C46.1002 55.5363 45.8902 55.8063 45.6402 56.0363C45.3902 56.2663 45.1202 56.4463 44.8302 56.5763C44.6202 56.6763 44.4002 56.7463 44.1802 56.7863C43.9602 56.8363 43.7202 56.8563 43.4802 56.8563H43.3002V49.1663C43.3002 49.1663 43.3802 49.1663 43.4202 49.1663C43.4602 49.1663 43.5002 49.1663 43.5502 49.1663C43.7902 49.1663 44.0202 49.1863 44.2502 49.2363V49.2163ZM39.6902 53.0163C39.7002 53.5263 39.8002 54.0263 39.9902 54.5363C40.1702 55.0363 40.4302 55.4863 40.7502 55.8863C41.0802 56.2863 41.4702 56.6063 41.9202 56.8563C42.3802 57.1063 42.8902 57.2263 43.4602 57.2263C44.1202 57.2263 44.7102 57.0763 45.2302 56.7763C45.5302 56.6063 45.8002 56.3863 46.0402 56.1363C46.2802 55.8863 46.4902 55.5963 46.6702 55.2763C46.8502 54.9563 46.9802 54.6063 47.0802 54.2263C47.1802 53.8463 47.2302 53.4463 47.2302 53.0263C47.2302 52.3663 47.1302 51.7763 46.9302 51.2563C46.7302 50.7363 46.4602 50.2963 46.1202 49.9263C45.7802 49.5563 45.3902 49.2763 44.9502 49.0863C44.5002 48.8963 44.0402 48.7963 43.5602 48.7963C43.1702 48.7963 42.7802 48.8563 42.4002 48.9863C42.0102 49.1063 41.6402 49.3063 41.2802 49.5863C41.0202 49.7863 40.7902 50.0163 40.6002 50.2663C40.4102 50.5163 40.2402 50.7963 40.1102 51.0863C39.9802 51.3763 39.8802 51.6863 39.8102 52.0063C39.7402 52.3263 39.7002 52.6463 39.6902 52.9663V53.0363V53.0163ZM38.1702 56.4663C38.0202 56.4963 37.8602 56.5163 37.6702 56.5263C37.5702 56.5263 37.4302 56.5463 37.2702 56.5463C37.1302 56.5463 36.9502 56.5563 36.7302 56.5663C36.5102 56.5663 36.2402 56.5663 35.9302 56.5663H35.5302L37.8702 53.3263C37.9702 53.1863 38.0802 53.0263 38.1702 52.8563C38.2702 52.6863 38.3602 52.5063 38.4302 52.3263C38.5102 52.1363 38.5702 51.9463 38.6202 51.7563C38.6702 51.5663 38.6902 51.3763 38.6902 51.1863C38.6902 50.7463 38.5902 50.3663 38.3902 50.0563C38.1902 49.7463 37.9302 49.4963 37.6002 49.2963C37.2702 49.1063 36.8902 48.9563 36.4602 48.8663C36.0302 48.7763 35.5802 48.7363 35.1202 48.7363C34.6602 48.7363 34.2002 48.8063 33.7802 48.9363C33.3602 49.0663 32.9802 49.2563 32.6602 49.4863C32.3402 49.7163 32.0802 49.9963 31.9002 50.3163C31.7102 50.6363 31.6202 50.9763 31.6202 51.3363C31.6202 51.5763 31.6602 51.7963 31.7302 52.0063C31.8002 52.2163 31.9402 52.4263 32.1502 52.6663C32.1902 52.6963 32.2302 52.7163 32.2802 52.7163C32.3302 52.7163 32.3802 52.6963 32.4202 52.6563C32.4602 52.6163 32.4802 52.5663 32.4802 52.5063C32.4802 52.4663 32.4702 52.4263 32.4502 52.3863C32.2802 52.1963 32.1602 52.0163 32.1002 51.8563C32.0402 51.6963 32.0002 51.5163 32.0002 51.3263C32.0002 51.0063 32.0902 50.7063 32.2602 50.4263C32.4302 50.1463 32.6602 49.9163 32.9602 49.7163C33.2502 49.5163 33.5902 49.3663 33.9802 49.2463C34.3702 49.1363 34.7802 49.0763 35.2002 49.0763C35.5402 49.0763 35.7802 49.1163 35.9002 49.2063C36.0202 49.2963 36.0902 49.4163 36.0902 49.5763C36.0902 49.7063 36.0602 49.8363 36.0102 49.9663C35.9502 50.0963 35.9002 50.2263 35.8402 50.3363C35.6402 50.7263 35.4202 51.1163 35.1702 51.5163C34.9302 51.9163 34.7002 52.2763 34.4902 52.5963C34.2402 52.9763 34.0002 53.3463 33.7502 53.6963L31.4502 56.8763H37.3002C37.4002 56.8763 37.5202 56.8763 37.6502 56.8863C37.7802 56.8863 37.9002 56.8963 38.0102 56.9063C38.1202 56.9063 38.2202 56.9063 38.3002 56.9263C38.3802 56.9263 38.4302 56.9363 38.4502 56.9363C38.5502 56.9363 38.6302 56.8963 38.6602 56.8063C38.7002 56.7163 38.7202 56.6463 38.7202 56.5863C38.7202 56.5363 38.7202 56.4863 38.6902 56.4563C38.6702 56.4163 38.6302 56.3963 38.5702 56.3963C38.5402 56.3963 38.5102 56.3963 38.4902 56.4063C38.4402 56.4163 38.3502 56.4463 38.2002 56.4663H38.1702Z" fill="#B34353" stroke="#B34353" stroke-width="0.5" stroke-miterlimit="10"/>
</svg>
