<svg id="Camada_2" data-name="Camada 2" xmlns="http://www.w3.org/2000/svg" viewBox="0 0 139.5 57.47">   <defs>     <style>       .cls-1 {         fill: var(--especial);         stroke: var(--especial);         stroke-miterlimit: 10;         stroke-width: .5px;       }     </style>   </defs>   <g id="Camada_1-2" data-name="Camada 1">     <g>       <path class="cls-1" d="M102.28,14.58c-.12,0-.36-.01-.36-.03V3.03s.24-.03.36-.03c3.17,0,5.8,2.61,5.8,5.8s-2.63,5.78-5.8,5.78M102.28,14.7c3.25,0,5.92-2.66,5.92-5.9s-2.67-5.92-5.92-5.92-5.9,2.67-5.9,5.92,2.66,5.9,5.9,5.9M90.17,14.34h-.03s-.33,0-.33-.01V3.27s.09-.01.3-.01h.03c2.9,0,5.21,2.19,5.21,5.53s-2.34,5.56-5.18,5.56M90.15,14.46c2.99,0,5.32-2.31,5.32-5.68s-2.33-5.65-5.32-5.65h-5.15c-.11,0-.18.06-.18.18v10.96c0,.11.06.18.18.18h5.15ZM72.68,14.58c-.12,0-.36-.01-.36-.03V3.03s.24-.03.36-.03c3.17,0,5.8,2.61,5.8,5.8s-2.63,5.78-5.8,5.78M72.68,14.7c3.25,0,5.92-2.66,5.92-5.9s-2.67-5.92-5.92-5.92-5.9,2.67-5.9,5.92,2.66,5.9,5.9,5.9M60.58,14.46h4.62c.11,0,.18-.08.18-.18V3.32c0-.14-.06-.18-.18-.18h-4.62c-.09,0-.18.05-.18.18v10.96c0,.11.06.18.18.18M53.68,12.05V3.27s.08-.01.2-.01h.06c2.85,0,4.8,1.71,4.8,4.18,0,2.81-2.07,4.61-4.94,4.61h-.12ZM48.88,14.46h4.62c.12,0,.18-.08.18-.18v-2.11h.12c1.71,0,2.04,2.45,3.94,2.45.32,0,.57-.02.95-.14.09-.03.12-.12.08-.17l-.02-.02s-.11-.03-.14-.02c-.32.18-.57.21-.88.21-1.63,0-2.05-1.96-3.4-2.36,2.84-.21,4.51-2.19,4.51-4.7s-1.99-4.3-4.91-4.3h-5.07c-.11,0-.18.08-.18.18v10.96c0,.12.08.18.18.18M37.72,12.05l1.84-3.64,1.77,3.64h-3.61ZM42.25,3.06c-.06,0-.12.05-.15.11l-5.01,9.85c-.47.92-.62,1.12-.71,1.28-.05.08.02.17.08.17h.02s.08-.02.11-.08c.09-.18.18-.45.62-1.31l.47-.91h3.73l.17.35c.65,1.33.74,1.53.85,1.75.05.09.14.2.29.2h5.25c.09,0,.15-.09.09-.2-.09-.17-.23-.44-.91-1.77l-4.74-9.33c-.03-.06-.08-.11-.14-.11M43.48.45c.06-.03.06-.09.05-.12v-.03s-.06-.08-.15-.03-.23.15-.56.32l-1.13.56c-.38.18-.59.23-.71.29-.06.03-.06.09-.05.12l.02.03s.06.08.14.05c.14-.06.3-.2.66-.38l1.1-.54c.36-.18.54-.21.63-.26M31.19,14.7c3.5,0,4.95-2.04,4.95-4.48v-5.5c0-1.03.05-1.33.05-1.48,0-.08-.06-.11-.09-.11h-.02s-.11.03-.11.11c0,.15.05.45.05,1.48v5.5c0,2.39-1.43,4.36-4.8,4.36-.03,0-.06,0-.06-.01V3.32c0-.09-.03-.18-.17-.18h-4.67c-.11,0-.15.08-.15.18v6.54c0,2.69,1.65,4.85,5.01,4.85M23.97,14.46c.17.09.29.03.29-.11V5.03c0-1.49.05-1.69.05-1.78,0-.08-.06-.11-.09-.11h-.03s-.09.03-.09.11c0,.09.05.29.05,1.78v3.56L15.18,3.14c-.17-.11-.29-.03-.29.11v9.33c0,1.46-.05,1.68-.05,1.78,0,.08.06.11.09.11h.03s.09-.03.09-.11c0-.11-.05-.32-.05-1.78v-3.55l8.95,5.44ZM3.87,12.05l1.84-3.64,1.77,3.64h-3.61ZM8.4,3.06c-.06,0-.12.05-.15.11L3.24,13.01c-.47.92-.62,1.12-.71,1.28-.05.08.01.17.08.17h.02s.08-.02.11-.08c.09-.18.18-.45.62-1.31l.47-.91h3.73l.17.35c.65,1.33.74,1.53.85,1.75.05.09.14.2.29.2h5.25c.09,0,.15-.09.09-.2-.09-.17-.23-.44-.91-1.77L8.54,3.17c-.03-.06-.08-.11-.14-.11"></path>       <path class="cls-1" d="M113.69,39.32l4.56-9,4.37,9h-8.92ZM124.89,17.1c-.15,0-.3.11-.37.26l-12.4,24.35c-1.16,2.28-1.53,2.76-1.76,3.17-.11.19.04.41.19.41h.04c.11,0,.19-.04.26-.19.22-.45.45-1.12,1.53-3.25l1.16-2.24h9.22l.41.86c1.61,3.29,1.83,3.77,2.09,4.33.11.22.34.49.71.49h12.99c.22,0,.37-.22.22-.49-.22-.41-.56-1.08-2.24-4.37l-11.72-23.08c-.07-.15-.19-.26-.34-.26M127.91,10.64c.15-.07.15-.22.11-.3l-.04-.07c-.04-.07-.11-.19-.34-.07-.22.11-.56.37-1.38.78l-2.8,1.38c-.93.45-1.46.56-1.76.71-.15.07-.15.22-.11.3l.04.07c.04.07.15.19.34.11.34-.15.75-.49,1.64-.93l2.73-1.34c.9-.45,1.34-.52,1.57-.63M98.19,39.32v-21.69s.19-.04.49-.04h.15c7.06,0,11.87,4.22,11.87,10.34,0,6.94-5.12,11.39-12.21,11.39h-.3ZM86.32,45.29h11.43c.3,0,.45-.19.45-.45v-5.23h.3c4.22,0,5.04,6.05,9.75,6.05.78,0,1.42-.04,2.35-.34.22-.07.3-.3.19-.41l-.04-.04c-.11-.11-.26-.07-.34-.04-.78.45-1.42.52-2.17.52-4.03,0-5.08-4.85-8.4-5.82,7.02-.52,11.16-5.41,11.16-11.61s-4.93-10.64-12.14-10.64h-12.55c-.26,0-.45.19-.45.45v27.11c0,.3.19.45.45.45M58.72,39.32l4.56-9,4.37,9h-8.92ZM69.93,17.1c-.15,0-.3.11-.37.26l-12.4,24.35c-1.16,2.28-1.53,2.76-1.75,3.17-.11.19.04.41.19.41h.04c.11,0,.19-.04.26-.19.22-.45.45-1.12,1.53-3.25l1.16-2.24h9.22l.41.86c1.61,3.29,1.83,3.77,2.09,4.33.11.22.34.49.71.49h12.99c.22,0,.37-.22.22-.49-.22-.41-.56-1.08-2.24-4.37l-11.72-23.08c-.07-.15-.19-.26-.34-.26M31.39,45.29h18.93c3.29,0,3.73.07,4.03.07.19,0,.26-.15.26-.22v-.07c0-.07-.07-.22-.26-.22-.3,0-.75.15-4.03.15h-6.8c-.15,0-.26,0-.26-.04v-16.65h5.19c2.73,0,3.29.11,3.66.11.19,0,.26-.15.26-.22v-.07c0-.07-.07-.22-.26-.22-.37,0-.93.11-3.66.11h-5.19v-10.38s.07-.04.22-.04h4.97c2.73,0,3.17.15,3.66.15.19,0,.26-.15.26-.22v-.07c0-.07-.07-.22-.26-.22-.49,0-.93.07-3.66.07h-17.06c-.22,0-.45.19-.45.45v27.11c0,.3.19.45.45.45M14.85,45.89c6.5,0,11.58-4.11,13.74-9,.07-.19.04-.26-.04-.34l-.04-.04c-.07-.07-.34-.07-.41.19-1.64,4.78-6.95,8.89-13.26,8.89-.3,0-.9-.04-.9-.07v-28.49s.6-.07.9-.07c6.24,0,11.54,4.22,13.03,8.92.07.26.34.26.41.19l.04-.04c.07-.07.11-.11.04-.34-1.98-4.82-7.13-9.04-13.52-9.04C6.86,16.65.25,23.22.25,31.25s6.61,14.64,14.6,14.64"></path>       <rect class="cls-1" x="67.79" y="53.24" width="3.91" height="1.09"></rect>       <path class="cls-1" d="M106.34,49.45c-.17-.14-.35-.26-.56-.34-.2-.09-.42-.15-.65-.19-.23-.04-.46-.06-.69-.06-.64,0-1.23.12-1.75.37-.52.25-.96.57-1.33.98-.37.4-.65.86-.85,1.38-.2.52-.3,1.04-.3,1.58s.09,1.04.26,1.55c.18.51.46.97.85,1.37.16.18.36.34.57.47.22.13.44.25.68.34.24.09.48.16.74.21.25.05.51.07.75.07.52,0,.98-.07,1.38-.21.4-.14.75-.34,1.05-.59.3-.25.53-.55.72-.89.18-.34.32-.72.4-1.12.02-.12.03-.25.03-.39,0-.34-.06-.65-.18-.93-.12-.28-.28-.53-.48-.74-.2-.21-.44-.37-.71-.49-.27-.12-.56-.17-.86-.17-.09,0-.21.01-.35.03-.15.02-.29.06-.43.1-.14.05-.26.1-.36.17-.1.07-.15.15-.15.24,0,.11.06.17.16.17.05,0,.08-.02.11-.05.34-.19.7-.29,1.08-.29.25,0,.48.05.7.16.22.11.4.25.56.43.16.18.28.39.38.62.09.24.14.48.14.72,0,.43-.08.83-.25,1.18-.17.36-.4.66-.69.92-.29.25-.63.45-1.02.59-.39.14-.79.21-1.22.21h-.15s-.09,0-.13-.01v-7.61c.1-.02.21-.03.32-.04.11-.01.22-.02.33-.02.29,0,.58.03.85.08.28.06.51.19.68.4.05.06.1.13.15.21.04.08.09.16.13.23.04.07.08.13.13.18.05.05.09.07.13.07.05,0,.11-.03.19-.08.07-.05.11-.11.11-.17,0-.04-.01-.08-.03-.12-.13-.22-.28-.4-.44-.54ZM98.71,56.47c-.15.03-.31.05-.5.06-.1,0-.24.02-.4.02-.14,0-.32.01-.54.02-.22,0-.49,0-.8,0h-.4l2.34-3.24c.1-.14.21-.3.3-.47.1-.17.19-.35.26-.53.08-.19.14-.38.19-.57.05-.19.07-.38.07-.57,0-.44-.1-.82-.3-1.13-.2-.31-.46-.56-.79-.76-.33-.19-.71-.34-1.14-.43s-.88-.13-1.34-.13-.92.07-1.34.2c-.42.13-.8.32-1.12.55-.32.23-.58.51-.76.83-.19.32-.28.66-.28,1.02,0,.24.04.46.11.67.07.21.21.42.42.66.04.03.08.05.13.05s.1-.02.14-.06c.04-.04.06-.09.06-.15,0-.04-.01-.08-.03-.12-.17-.19-.29-.37-.35-.53-.06-.16-.1-.34-.1-.53,0-.32.09-.62.26-.9.17-.28.4-.51.7-.71.29-.2.63-.35,1.02-.47.39-.11.8-.17,1.22-.17.34,0,.58.04.7.13.12.09.19.21.19.37,0,.13-.03.26-.08.39-.06.13-.11.26-.17.37-.2.39-.42.78-.67,1.18-.24.4-.47.76-.68,1.08-.25.38-.49.75-.74,1.1l-2.3,3.18h5.85c.1,0,.22,0,.35.01.13,0,.25.01.36.02.11,0,.21,0,.29.02.08,0,.13.01.15.01.1,0,.18-.04.21-.13.04-.09.06-.16.06-.22,0-.05,0-.1-.03-.13-.02-.04-.06-.06-.12-.06-.03,0-.06,0-.08.01-.05.01-.14.04-.29.06ZM88.21,49.22c.23.05.45.13.66.23.28.14.54.33.77.56s.45.49.62.8c.17.3.31.64.4,1.01.1.37.15.77.15,1.21s-.05.83-.15,1.2c-.1.37-.24.71-.42,1.01-.18.3-.39.57-.64.8-.25.23-.52.41-.81.54-.21.1-.43.17-.65.21-.22.05-.46.07-.7.07h-.18v-7.69s.08,0,.12,0,.08,0,.13,0c.24,0,.47.02.7.07ZM83.65,53.02c.02.51.11,1.01.3,1.52.18.5.44.95.76,1.35.33.4.72.72,1.17.97.46.25.97.37,1.54.37.66,0,1.25-.15,1.77-.45.3-.17.57-.39.81-.64.24-.25.45-.54.63-.86.18-.32.31-.67.41-1.05.1-.38.15-.78.15-1.2,0-.66-.1-1.25-.3-1.77-.2-.52-.47-.96-.81-1.33-.34-.37-.73-.65-1.17-.84-.45-.19-.91-.29-1.39-.29-.39,0-.78.06-1.16.19-.39.12-.76.32-1.12.6-.26.2-.49.43-.68.68-.19.25-.36.53-.49.82-.13.29-.23.6-.3.92-.07.32-.11.64-.12.96v.07ZM82.13,56.47c-.15.03-.31.05-.5.06-.11,0-.24.02-.4.02-.14,0-.32.01-.54.02-.22,0-.49,0-.8,0h-.4l2.34-3.24c.1-.14.21-.3.3-.47.1-.17.19-.35.26-.53.08-.19.14-.38.19-.57.05-.19.07-.38.07-.57,0-.44-.1-.82-.3-1.13-.2-.31-.46-.56-.79-.76-.33-.19-.71-.34-1.14-.43-.43-.09-.88-.13-1.34-.13s-.92.07-1.34.2c-.42.13-.8.32-1.12.55-.32.23-.58.51-.76.83-.19.32-.28.66-.28,1.02,0,.24.04.46.11.67.07.21.21.42.42.66.04.03.08.05.13.05s.1-.02.14-.06c.04-.04.06-.09.06-.15,0-.04-.01-.08-.03-.12-.17-.19-.29-.37-.35-.53-.06-.16-.1-.34-.1-.53,0-.32.09-.62.26-.9.17-.28.4-.51.7-.71.29-.2.63-.35,1.02-.47.39-.11.8-.17,1.22-.17.34,0,.58.04.7.13.12.09.19.21.19.37,0,.13-.03.26-.08.39-.06.13-.11.26-.17.37-.2.39-.42.78-.67,1.18-.24.4-.47.76-.68,1.08-.25.38-.49.75-.74,1.1l-2.3,3.18h5.85c.1,0,.22,0,.35.01.13,0,.25.01.36.02.11,0,.21,0,.29.02.08,0,.13.01.15.01.1,0,.18-.04.21-.13.04-.09.06-.16.06-.22,0-.05,0-.1-.03-.13-.02-.04-.06-.06-.12-.06-.03,0-.06,0-.08.01-.04.01-.14.04-.29.06ZM61.9,49.11c-.16.02-.33.03-.52.03h-3.2s-.05-.01-.08-.01-.05.02-.06.05l-.02.06c-.15.36-.28.71-.39,1.06-.11.35-.23.7-.38,1.06-.02.06-.02.1-.02.11,0,.11.07.16.22.16.06,0,.11-.04.16-.11.05-.07.14-.13.26-.19.12-.06.26-.1.42-.15.16-.04.32-.07.5-.1.18-.03.35-.04.52-.04.05,0,.11,0,.16.01.06,0,.11.03.16.08.05.04.09.12.12.21.03.1.05.23.05.4v5.11h-.13c-.4,0-.78-.05-1.15-.16-.37-.1-.7-.26-.98-.47-.28-.21-.51-.46-.69-.77-.18-.31-.26-.67-.26-1.08,0-.19.04-.39.12-.59.08-.2.22-.38.42-.56.07-.07.11-.14.11-.21,0-.07-.03-.13-.08-.17-.05-.05-.12-.07-.19-.07-.13,0-.24.06-.33.19-.09.12-.17.27-.24.44-.06.17-.11.34-.14.52-.03.18-.05.31-.05.41,0,.47.09.89.28,1.24.18.36.43.65.74.9.31.24.67.43,1.08.55.41.12.85.19,1.31.19.52,0,1.01-.08,1.47-.25.46-.16.86-.39,1.2-.69.34-.3.61-.65.8-1.06.19-.41.29-.86.29-1.36s-.1-.91-.3-1.3c-.2-.39-.47-.72-.83-1-.35-.28-.77-.49-1.24-.63-.48-.15-.99-.22-1.54-.22-.28,0-.57.02-.85.06-.28.04-.54.11-.79.22.08-.25.16-.49.24-.74.08-.24.17-.49.28-.75h2.45c.13,0,.28,0,.44.01.16,0,.3.01.44.02.14,0,.25.01.35.02.09,0,.15.01.16.01.1,0,.17-.04.21-.12.03-.08.05-.16.05-.24,0-.1-.05-.15-.15-.15-.03,0-.06,0-.08.01-.05.02-.15.03-.31.05ZM54.75,56.47c-.15.03-.31.05-.5.06-.11,0-.24.02-.4.02-.14,0-.32.01-.54.02-.22,0-.49,0-.8,0h-.4l2.34-3.24c.1-.14.21-.3.3-.47.1-.17.19-.35.26-.53.08-.19.14-.38.19-.57.04-.19.07-.38.07-.57,0-.44-.1-.82-.3-1.13-.2-.31-.46-.56-.79-.76-.33-.19-.71-.34-1.14-.43-.43-.09-.88-.13-1.34-.13s-.92.07-1.34.2c-.42.13-.8.32-1.12.55-.32.23-.58.51-.76.83-.19.32-.28.66-.28,1.02,0,.24.04.46.11.67.07.21.21.42.42.66.04.03.08.05.13.05s.1-.02.14-.06c.04-.04.06-.09.06-.15,0-.04-.01-.08-.03-.12-.17-.19-.29-.37-.35-.53-.06-.16-.1-.34-.1-.53,0-.32.09-.62.26-.9.17-.28.4-.51.7-.71.29-.2.63-.35,1.02-.47.39-.11.8-.17,1.22-.17.34,0,.58.04.7.13.12.09.19.21.19.37,0,.13-.03.26-.08.39-.06.13-.11.26-.17.37-.2.39-.42.78-.67,1.18-.24.4-.47.76-.68,1.08-.25.38-.49.75-.74,1.1l-2.3,3.18h5.85c.1,0,.22,0,.35.01.13,0,.25.01.36.02.11,0,.21,0,.29.02.08,0,.13.01.15.01.1,0,.18-.04.21-.13.04-.09.06-.16.06-.22,0-.05,0-.1-.03-.13-.02-.04-.06-.06-.12-.06-.03,0-.06,0-.08.01-.05.01-.14.04-.29.06ZM44.25,49.22c.23.05.45.13.66.23.28.14.53.33.77.56.24.23.45.49.62.8.17.3.31.64.4,1.01.1.37.15.77.15,1.21s-.05.83-.15,1.2c-.1.37-.24.71-.42,1.01-.18.3-.39.57-.64.8-.25.23-.52.41-.81.54-.21.1-.43.17-.65.21-.22.05-.46.07-.7.07h-.18v-7.69s.08,0,.12,0c.04,0,.08,0,.13,0,.24,0,.47.02.7.07ZM39.69,53.02c.01.51.11,1.01.3,1.52.18.5.44.95.76,1.35.33.4.72.72,1.17.97.46.25.97.37,1.54.37.66,0,1.25-.15,1.77-.45.3-.17.57-.39.81-.64.24-.25.45-.54.63-.86.18-.32.31-.67.41-1.05.1-.38.15-.78.15-1.2,0-.66-.1-1.25-.3-1.77-.2-.52-.47-.96-.81-1.33-.34-.37-.73-.65-1.17-.84-.45-.19-.91-.29-1.39-.29-.39,0-.78.06-1.16.19-.39.12-.76.32-1.12.6-.26.2-.49.43-.68.68-.19.25-.36.53-.49.82s-.23.6-.3.92c-.07.32-.11.64-.12.96v.07ZM38.17,56.47c-.15.03-.31.05-.5.06-.1,0-.24.02-.4.02-.14,0-.32.01-.54.02-.22,0-.49,0-.8,0h-.4l2.34-3.24c.1-.14.21-.3.3-.47.1-.17.19-.35.26-.53.08-.19.14-.38.19-.57.05-.19.07-.38.07-.57,0-.44-.1-.82-.3-1.13-.2-.31-.46-.56-.79-.76-.33-.19-.71-.34-1.14-.43s-.88-.13-1.34-.13-.92.07-1.34.2c-.42.13-.8.32-1.12.55-.32.23-.58.51-.76.83-.19.32-.28.66-.28,1.02,0,.24.04.46.11.67.07.21.21.42.42.66.04.03.08.05.13.05s.1-.02.14-.06c.04-.04.06-.09.06-.15,0-.04-.01-.08-.03-.12-.17-.19-.29-.37-.35-.53-.06-.16-.1-.34-.1-.53,0-.32.09-.62.26-.9.17-.28.4-.51.7-.71.29-.2.63-.35,1.02-.47.39-.11.8-.17,1.22-.17.34,0,.58.04.7.13.12.09.19.21.19.37,0,.13-.03.26-.08.39-.06.13-.11.26-.17.37-.2.39-.42.78-.67,1.18-.24.4-.47.76-.68,1.08-.25.38-.49.75-.74,1.1l-2.3,3.18h5.85c.1,0,.22,0,.35.01.13,0,.25.01.36.02.11,0,.21,0,.29.02.08,0,.13.01.15.01.1,0,.18-.04.21-.13.04-.09.06-.16.06-.22,0-.05,0-.1-.03-.13-.02-.04-.06-.06-.12-.06-.03,0-.06,0-.08.01-.05.01-.14.04-.29.06Z"></path>     </g>   </g> </svg>