<svg width="24" height="24" viewBox="0 0 24 24" fill="none" xmlns="http://www.w3.org/2000/svg">
<path d="M23.9901 21.4323C24.0021 21.0814 23.9429 20.7316 23.8161 20.4042C23.6892 20.0768 23.4974 19.7785 23.2521 19.5272L19.0141 15.1332C19.7109 14.0159 20.1752 12.7697 20.3793 11.4689C20.5834 10.1681 20.5232 8.83937 20.2021 7.5624C19.8809 6.28542 19.3056 5.08628 18.5104 4.03676C17.7152 2.98724 16.7166 2.10896 15.5741 1.45424C13.25 0.0790712 10.4832 -0.341556 7.8555 0.281147C5.22781 0.903849 2.94388 2.52123 1.48404 4.79311C0.787073 5.9104 0.322641 7.15674 0.118444 8.45766C-0.0857537 9.75859 -0.025451 11.0873 0.29569 12.3644C0.61683 13.6415 1.1922 14.8409 1.98746 15.8905C2.78273 16.9401 3.78154 17.8183 4.92411 18.473C6.44724 19.3664 8.17067 19.8623 9.9357 19.9147C11.7007 19.9671 13.4506 19.5745 15.0241 18.7731L19.2581 23.1601C19.5872 23.503 20.0012 23.7529 20.458 23.8842C21.1465 24.094 21.8898 24.0261 22.5288 23.6952C23.1679 23.3643 23.6521 22.7965 23.8781 22.1132C23.9477 21.8908 23.9871 21.66 23.9952 21.4271L23.9901 21.4323ZM5.50016 14.3703C4.62078 13.4322 4.03928 12.2543 3.82938 10.9857C3.61948 9.7172 3.79061 8.41487 4.32096 7.24355C4.85131 6.07223 5.71709 5.08458 6.80887 4.40541C7.90066 3.72625 9.16928 3.38614 10.4544 3.42812C11.7395 3.4701 12.9833 3.89229 14.0285 4.64125C15.0736 5.39022 15.8731 6.43221 16.3258 7.63564C16.7786 8.83907 16.8643 10.1499 16.5721 11.402C16.2798 12.6541 15.6228 13.7914 14.6841 14.6701C13.4251 15.8475 11.7503 16.4772 10.0274 16.4208C8.30451 16.3644 6.67445 15.6263 5.49515 14.369L5.50016 14.3703Z" fill="#B34353"/>
</svg>
