<svg xmlns="http://www.w3.org/2000/svg" width="24.001" height="24" viewBox="0 0 24.001 24">
                                    <path id="Caminho_1390" data-name="Caminho 1390" d="M1486.3,2510.724a2.6,2.6,0,0,0-.738-1.905l-4.238-4.394a9.793,9.793,0,0,0-3.44-13.679,10.433,10.433,0,0,0-14.09,3.339,9.793,9.793,0,0,0,3.44,13.68,10.523,10.523,0,0,0,10.1.3l4.234,4.387a2.694,2.694,0,0,0,1.2.724,2.756,2.756,0,0,0,3.42-1.771,2.6,2.6,0,0,0,.117-.686Zm-18.49-7.062a6.5,6.5,0,1,1,9.184.3h0A6.506,6.506,0,0,1,1467.805,2503.661Z" transform="translate(-1462.296 -2489.296)" fill="#1b406d"></path>
                                </svg>